HIERARCHY
ROOT Hips
{
	OFFSET -6.585965 91.663933 257.982513
	CHANNELS 6 Xposition Yposition Zposition Xrotation Yrotation Zrotation 
	JOINT RightUpLeg
	{
		OFFSET 0.103457 1.857831 10.548505
		CHANNELS 3 Xrotation Yrotation Zrotation
		JOINT RightLeg
		{
			OFFSET 43.500000 -0.000038 -0.000004
			CHANNELS 3 Xrotation Yrotation Zrotation
			JOINT RightFoot
			{
				OFFSET 42.372208 0.000027 -0.000004
				CHANNELS 3 Xrotation Yrotation Zrotation
				JOINT RightToe
				{
					OFFSET 17.300005 0.000002 0.000002
					CHANNELS 3 Xrotation Yrotation Zrotation
					End Site
					{
						OFFSET 0.000000 0.000000 0.000000
					}
				}
			}
		}
	}
	JOINT LeftUpLeg
	{
		OFFSET 0.103462 1.857825 -10.548504
		CHANNELS 3 Xrotation Yrotation Zrotation
		JOINT LeftLeg
		{
			OFFSET 43.500042 -0.000027 0.000011
			CHANNELS 3 Xrotation Yrotation Zrotation
			JOINT LeftFoot
			{
				OFFSET 42.372265 -0.000015 0.000012
				CHANNELS 3 Xrotation Yrotation Zrotation
				JOINT LeftToe
				{
					OFFSET 17.299988 -0.000007 0.000010
					CHANNELS 3 Xrotation Yrotation Zrotation
					End Site
					{
						OFFSET 0.000000 0.000000 0.000000
					}
				}
			}
		}
	}
	JOINT Spine
	{
		OFFSET 6.901970 -2.603737 0.000000
		CHANNELS 3 Xrotation Yrotation Zrotation
		JOINT Spine1
		{
			OFFSET 12.588099 0.000007 0.000001
			CHANNELS 3 Xrotation Yrotation Zrotation
			JOINT Spine2
			{
				OFFSET 12.343201 0.000001 0.000000
				CHANNELS 3 Xrotation Yrotation Zrotation
				JOINT Neck
				{
					OFFSET 25.832897 -0.000008 -0.000001
					CHANNELS 3 Xrotation Yrotation Zrotation
					JOINT Head
					{
						OFFSET 11.766607 0.000021 0.000000
						CHANNELS 3 Xrotation Yrotation Zrotation
						End Site
						{
							OFFSET 0.000000 0.000000 0.000000
						}
					}
				}
				JOINT RightShoulder
				{
					OFFSET 19.745903 -1.480373 6.000104
					CHANNELS 3 Xrotation Yrotation Zrotation
					JOINT RightArm
					{
						OFFSET 11.284125 -0.000018 -0.000023
						CHANNELS 3 Xrotation Yrotation Zrotation
						JOINT RightForeArm
						{
							OFFSET 33.000050 0.000010 0.000034
							CHANNELS 3 Xrotation Yrotation Zrotation
							JOINT RightHand
							{
								OFFSET 25.200010 0.000001 -0.000001
								CHANNELS 3 Xrotation Yrotation Zrotation
								End Site
								{
									OFFSET 0.000000 0.000000 0.000000
								}
							}
						}
					}
				}
				JOINT LeftShoulder
				{
					OFFSET 19.746090 -1.480381 -6.000076
					CHANNELS 3 Xrotation Yrotation Zrotation
					JOINT LeftArm
					{
						OFFSET 11.284138 -0.000019 -0.000020
						CHANNELS 3 Xrotation Yrotation Zrotation
						JOINT LeftForeArm
						{
							OFFSET 33.000092 0.000024 0.000022
							CHANNELS 3 Xrotation Yrotation Zrotation
							JOINT LeftHand
							{
								OFFSET 25.199774 0.000133 0.000423
								CHANNELS 3 Xrotation Yrotation Zrotation
								End Site
								{
									OFFSET 0.000000 0.000000 0.000000
								}
							}
						}
					}
				}
			}
		}
	}
}
MOTION
Frames: 17
Frame Time: 0.033333
177.840195 80.415871 480.491913 89.074689 6.998989 108.710937 158.032423 -4.710199 179.211460 -66.375690 -0.823407 -5.393225 103.899000 3.436423 -4.717847 21.454555 0.003108 0.000016 172.489570 19.389100 -176.534340 -49.771028 -4.025629 3.894848 90.622567 1.790451 29.061792 21.454553 -0.003099 -0.000001 10.703796 0.590530 -0.768796 11.387352 1.253917 -1.475741 11.069278 1.244852 -1.483292 -2.847048 1.463985 -7.736641 -17.333586 -1.043111 -6.993318 135.831712 -71.758644 43.968653 -2.906785 57.518416 36.003505 -72.090434 -10.450872 2.298527 -1.819787 -18.387617 39.809426 173.185908 75.419796 -5.584317 -11.793671 -52.172154 -32.269352 -61.586238 13.818801 -2.077503 6.086399 21.225101 -11.815509 
174.767303 77.972328 480.997498 88.802527 8.620102 110.594969 155.054788 -5.387698 -176.355061 -73.237100 0.462117 -5.778063 104.794097 3.619301 -8.308248 21.454558 0.003107 0.000016 173.482994 18.533206 -175.650868 -54.272338 -2.640739 1.844995 99.453374 1.005841 29.840164 21.454553 -0.003091 0.000000 10.949204 0.651404 -0.519157 11.880629 1.352741 -0.968664 11.562512 1.346717 -0.976814 -4.335621 1.721621 -8.727070 -16.978880 -0.858066 -7.927302 137.733606 -69.606956 42.209688 -8.118660 54.546403 32.467178 -68.666515 -11.900008 2.257852 -1.416479 -17.268081 44.339215 172.294390 73.527212 -6.559907 -15.816316 -50.689802 -29.434622 -55.029530 15.652676 -1.963027 6.955909 21.129199 -7.980804 
172.343506 77.902328 481.484711 89.323342 10.143293 109.129880 157.223838 -7.131101 -176.352739 -72.278305 0.639183 -6.286398 105.059504 3.939393 -9.895813 21.454555 0.003100 0.000016 174.020133 17.522285 -172.087422 -55.443118 -3.101495 2.577412 102.553999 -0.460703 25.931684 21.454553 -0.003083 0.000002 11.195008 0.440992 -0.037783 12.377422 0.883509 -0.028125 12.059290 0.883195 -0.033482 -3.782261 1.530347 -8.737683 -16.590538 -0.660118 -8.087159 138.823895 -68.265712 41.206381 -12.888526 54.641961 25.320771 -66.678007 -13.716159 2.302672 -0.545329 -15.625552 45.706960 166.719904 73.310483 -12.285693 -21.668290 -51.657076 -23.720967 -44.938215 16.823690 -1.714865 9.079999 19.693693 -4.413296 
170.360397 79.375038 481.803894 90.217244 9.450496 107.618892 160.221457 -7.164595 -175.439706 -66.292512 -0.391749 -7.484538 104.589812 4.722076 -10.989100 21.454557 0.003116 0.000017 174.536919 16.807405 -170.867127 -52.256435 -4.397816 1.556748 103.483698 -0.011018 24.149029 21.454557 -0.003092 0.000000 10.790568 0.000334 0.017619 11.568297 -0.001045 0.035191 11.250200 -0.000974 0.035181 -2.514871 1.553763 -7.978407 -15.502614 -0.655640 -7.349375 139.029388 -68.841477 40.949791 -16.396711 57.790162 19.031789 -62.245078 -14.929593 2.211577 -1.530293 -18.402524 39.176517 165.635120 73.778303 -13.377105 -28.171626 -53.707922 -17.852929 -36.206713 16.501059 -1.460447 12.021303 18.161700 -0.919089 
168.514496 81.695251 482.034088 90.136388 8.160399 106.957026 162.265050 -7.859104 -172.904996 -59.411909 -2.126123 -8.323416 101.583703 5.071364 -11.597672 21.454555 0.003109 0.000018 175.782336 14.754189 -173.812564 -46.409424 -2.267395 3.195559 101.659805 -0.929196 22.549029 21.454553 -0.003099 0.000000 10.256995 -0.172686 -0.128363 10.501593 -0.332953 -0.271857 10.183482 -0.334722 -0.269852 -3.080811 1.926294 -7.296433 -14.424830 -1.231610 -6.325761 137.446028 -69.250257 42.532274 -17.261339 59.689071 17.010183 -59.223805 -16.560439 2.208179 -0.048477 -19.439635 41.085838 165.723694 74.025713 -13.275414 -30.929634 -55.799603 -13.626974 -33.413951 16.042115 -1.366997 13.537800 18.273806 -0.380401 
166.989807 84.210052 482.133087 90.118001 6.720992 106.327884 164.037279 -8.793402 -173.086378 -52.368587 -2.693312 -8.702291 96.861774 4.946715 -11.575742 21.454557 0.003109 0.000018 176.711009 14.177703 -172.807570 -40.544464 -1.119960 3.197508 97.642288 -0.395915 20.196268 21.454550 -0.003090 0.000001 9.858772 -0.240180 -0.320732 9.706071 -0.452549 -0.660472 9.387984 -0.456671 -0.657736 -5.053995 1.334797 -6.202784 -14.038298 -1.107768 -5.396035 136.876909 -69.541148 43.088460 -17.775941 59.167811 17.121862 -57.482141 -16.102813 2.112687 1.464914 -18.750848 40.800862 164.030927 75.178130 -14.954814 -30.889592 -57.452881 -13.855950 -35.503286 15.932950 -1.407118 13.905102 18.045307 0.536902 
165.872604 86.480698 482.325104 90.284603 5.387893 104.510985 166.239086 -9.862706 -175.202890 -45.752108 -3.182398 -8.894520 91.708964 4.648433 -11.605992 21.454558 0.003112 0.000018 177.646308 14.736398 -170.250456 -34.664378 -0.161202 1.337327 93.458742 1.291148 17.735638 21.454551 -0.003087 -0.000001 9.505497 -0.335563 -0.255754 8.999804 -0.650161 -0.536850 8.681728 -0.653544 -0.532911 -7.514553 1.129114 -5.230829 -12.351558 -1.410829 -4.340307 135.902897 -70.039505 44.039356 -17.833730 57.839333 20.364136 -57.280104 -15.292182 2.050450 3.964900 -17.488015 38.453285 161.935207 76.576092 -17.026787 -29.176594 -57.811992 -17.541691 -39.810027 15.282314 -1.471220 12.829301 17.861599 1.240494 
164.819595 88.294952 482.623505 90.198775 4.420001 102.272951 168.703719 -11.500502 -177.310837 -39.789895 -4.210012 -8.886506 87.098197 4.195351 -12.089922 21.454560 0.003110 0.000017 178.812139 15.128104 -168.162536 -29.151282 1.198422 -1.046169 89.499643 3.235118 15.784974 21.454555 -0.003085 0.000002 9.172603 -0.356238 -0.087122 8.333124 -0.705211 -0.199629 8.015000 -0.706550 -0.195375 -9.188691 0.953064 -4.452582 -10.507356 -1.801551 -3.490359 134.649393 -70.854934 45.246465 -18.211101 56.563942 24.760732 -57.721478 -14.604732 2.020001 4.853491 -16.663145 37.989857 159.947799 78.369966 -18.958983 -27.298490 -57.558810 -22.901457 -45.466599 15.352621 -1.633487 11.004191 16.662504 -0.915302 
163.781204 89.582771 483.023590 90.244872 3.785290 100.299067 171.647203 -12.528398 -177.786955 -33.900852 -5.181105 -9.424113 83.579010 4.109549 -13.004159 21.454560 0.003106 0.000017 -179.546412 14.640005 -167.090729 -23.677221 1.574337 -2.461406 86.724087 4.514133 15.238924 21.454553 -0.003096 -0.000000 8.872470 -0.409225 0.004170 7.732394 -0.817774 -0.018952 7.414249 -0.817996 -0.014027 -9.477290 1.262913 -3.757110 -9.351273 -2.264091 -2.567555 133.030707 -71.300659 46.853735 -17.842372 55.494102 29.055048 -58.403745 -14.515298 2.038877 5.787172 -15.588112 39.177159 159.218280 78.488730 -19.694219 -24.654075 -55.287403 -28.375430 -51.459168 15.058964 -1.801817 8.901003 15.319102 -5.119906 
162.893097 90.178207 483.397797 90.207162 3.498994 98.556877 175.037258 -12.804597 -177.903929 -28.221211 -4.936611 -10.431128 82.304101 4.520220 -13.933492 21.454560 0.003111 0.000017 -178.143860 13.721297 -168.360529 -19.448221 2.297046 -1.931749 85.201870 4.125851 14.222912 21.454557 -0.003093 0.000000 8.672636 -0.416404 0.019792 7.332556 -0.833156 0.013209 7.014425 -0.833208 0.018244 -9.515346 1.467479 -3.043144 -8.627403 -2.508670 -1.735753 132.003091 -71.682344 47.864244 -17.542774 54.675101 31.612441 -58.972905 -14.196570 2.038234 6.858413 -14.031188 39.992701 160.793117 78.517321 -18.092497 -24.051155 -52.649195 -31.375557 -56.652748 14.419084 -1.937111 6.914197 14.848495 -10.037198 
162.220001 90.385422 483.636200 89.967238 3.063289 96.821039 177.775645 -12.903214 -177.715771 -23.316686 -4.864951 -12.306602 81.874106 5.753766 -14.247803 21.454560 0.003112 0.000017 -178.132932 12.845697 -170.433041 -17.483225 2.917881 -0.915098 84.448609 3.175822 12.708057 21.454555 -0.003081 0.000001 8.417441 -0.315745 -0.053917 6.822486 -0.627707 -0.126320 6.504372 -0.628610 -0.122531 -8.511613 0.980100 -1.900834 -8.944973 -2.176951 -0.895502 132.475918 -71.794823 47.374701 -16.804313 54.611102 32.486323 -59.210459 -13.953802 2.030563 8.735727 -12.816103 39.675391 159.528207 78.538583 -19.376676 -24.346317 -50.106886 -32.424339 -60.579618 13.470611 -2.016014 5.807692 14.214098 -11.910507 
161.497803 90.449493 483.856415 89.224537 2.939404 95.532961 179.794799 -13.438409 -178.116526 -20.024136 -4.220799 -13.780549 81.643143 6.662012 -14.748974 21.454557 0.003107 0.000018 -178.387288 11.309597 -173.690536 -16.724772 3.208188 0.516302 84.202531 1.993520 11.813574 21.454555 -0.003096 -0.000001 8.298755 -0.054269 -0.197329 6.584828 -0.097199 -0.397425 6.266737 -0.099739 -0.396839 -8.254275 1.152890 -1.015804 -9.090607 -2.936145 0.252951 134.352635 -71.326450 45.508324 -16.579789 54.706882 31.977501 -58.104146 -14.167305 2.004349 10.241659 -11.142663 38.550766 161.951667 78.284623 -16.926225 -26.299917 -47.576926 -31.576098 -62.949202 12.420705 -2.033932 6.429196 14.327493 -11.560701 
160.832794 90.502533 483.940094 88.405372 2.938090 94.724123 -179.336357 -14.298727 -177.940047 -18.722997 -3.796486 -14.599413 81.300104 7.037020 -15.521359 21.454560 0.003111 0.000018 -178.927966 10.060192 -175.114084 -17.079810 3.344560 0.777676 83.978938 1.712815 11.271193 21.454551 -0.003089 0.000000 8.313595 0.214097 -0.388273 6.612908 0.449974 -0.763709 6.294830 0.445224 -0.766419 -8.402196 1.736812 -0.322428 -9.296042 -3.748321 1.382913 136.157403 -70.296232 43.758799 -16.529276 54.957970 29.618023 -55.983908 -14.313822 1.937877 12.681462 -9.397561 34.644355 164.698209 77.544019 -14.166015 -28.323884 -45.938992 -29.542795 -63.856204 12.148031 -2.050095 8.244600 13.294402 -9.539901 
160.289703 90.646751 483.916290 87.963397 2.886505 94.402100 -179.679942 -15.281599 -178.686532 -19.248544 -3.911735 -14.140551 80.616450 6.591781 -15.722843 21.454557 0.003100 0.000015 -179.412240 9.376304 -175.184353 -17.514266 3.397351 0.518738 83.485368 1.848638 10.828489 21.454551 -0.003085 0.000001 8.377272 0.339936 -0.582673 6.738228 0.713184 -1.144669 6.420196 0.706108 -1.148951 -8.564628 3.065441 0.031824 -9.714316 -4.863169 2.546861 135.904563 -69.834661 44.054713 -17.164323 56.271944 26.287960 -53.843990 -14.894332 1.902000 15.535489 -7.010367 27.695246 165.478914 77.212918 -13.385504 -28.923587 -46.361719 -26.223550 -65.677323 11.611191 -2.084109 9.174599 12.379294 -12.426695 
159.931900 90.871979 483.857513 87.778675 2.968004 93.846936 179.828554 -16.132196 179.032659 -20.471892 -4.069431 -13.022383 79.654902 5.713808 -15.542876 21.454562 0.003103 0.000019 -179.923439 9.084115 -175.440417 -18.115509 3.522910 0.277871 82.672446 1.998723 10.376214 21.454553 -0.003091 -0.000001 8.484020 0.366357 -0.643373 6.951119 0.770623 -1.263650 6.633062 0.762855 -1.268285 -8.837228 3.619450 0.294556 -9.886946 -4.847521 3.012942 135.105923 -69.696999 44.879561 -18.325561 57.706813 23.240458 -52.746023 -15.608230 1.912234 17.190300 -6.203711 21.945200 165.663984 77.052313 -13.203825 -29.022597 -47.620936 -23.951672 -67.613129 11.188628 -2.131601 7.735208 11.228706 -15.195498 
159.664200 91.186684 483.816895 87.944430 3.136398 93.366937 179.472100 -16.328996 177.485471 -21.441721 -3.933528 -12.401628 77.974239 5.099100 -15.370366 21.454560 0.003115 0.000017 179.752698 9.005103 -175.055440 -18.630053 3.201544 -0.105093 81.776537 2.282658 10.029507 21.454555 -0.003093 -0.000000 8.604247 0.288587 -0.696202 7.192041 0.619812 -1.373183 6.874026 0.611374 -1.376908 -8.936871 3.772132 0.499467 -10.105859 -4.451315 3.164156 134.770916 -69.595290 45.229226 -19.181606 58.457383 20.786781 -53.618774 -15.243024 1.917630 18.757793 -7.795134 15.720860 164.903579 76.683633 -13.995421 -28.947090 -49.057315 -22.890022 -69.728288 10.634689 -2.178488 7.218991 9.587798 -14.268203 
159.501999 91.438042 483.774597 88.225014 3.359097 93.237061 179.350222 -16.110801 177.666580 -21.814559 -3.929712 -12.598485 76.626041 5.127026 -15.183458 21.454558 0.003118 0.000019 179.814470 9.002299 -175.382360 -18.676415 3.067564 0.200922 81.139833 2.104484 9.939681 21.454551 -0.003094 0.000000 8.695058 0.198992 -0.769086 7.374371 0.446522 -1.523940 7.056377 0.437176 -1.526621 -8.715916 3.804158 0.567873 -10.055667 -4.189632 3.155349 134.084291 -69.669022 45.921868 -20.311642 58.580080 20.281857 -55.070483 -14.751644 1.935108 19.572008 -10.237275 5.630095 164.294327 76.244603 -14.636779 -29.056502 -50.503607 -22.771818 -71.313548 10.064330 -2.203758 6.635608 8.384189 -10.555206 
